<?xml version="1.0" standalone="no"?>
<!DOCTYPE svg PUBLIC "-//W3C//DTD SVG 20010904//EN"
 "http://www.w3.org/TR/2001/REC-SVG-20010904/DTD/svg10.dtd">
<svg version="1.0" xmlns="http://www.w3.org/2000/svg"
 width="2000.000000pt" height="2000.000000pt" viewBox="0 0 2000.000000 2000.000000"
 preserveAspectRatio="xMidYMid meet">
<metadata>
Created by potrace 1.14, written by Peter Selinger 2001-2017
</metadata>
<g transform="translate(0.000000,2000.000000) scale(0.100000,-0.100000)"
fill="#000000" stroke="none">
<path d="M9628 19995 c-2 -1 -71 -6 -155 -9 -83 -4 -162 -9 -175 -11 -13 -2
-68 -6 -123 -10 -55 -3 -109 -8 -120 -10 -11 -2 -51 -7 -90 -10 -71 -6 -125
-12 -180 -19 -16 -3 -68 -10 -115 -16 -151 -19 -163 -21 -305 -46 -77 -14
-147 -25 -155 -25 -8 -1 -31 -5 -50 -10 -19 -4 -53 -11 -75 -15 -22 -3 -44 -7
-50 -9 -5 -1 -28 -5 -50 -10 -22 -4 -47 -9 -55 -11 -530 -107 -1234 -326
-1770 -551 -410 -172 -966 -449 -1230 -612 -8 -6 -58 -35 -110 -67 -158 -95
-340 -214 -555 -362 -83 -57 -426 -311 -435 -322 -3 -3 -48 -39 -100 -80 -52
-41 -102 -82 -111 -90 -8 -8 -27 -24 -40 -35 -45 -37 -234 -199 -250 -214 -9
-9 -63 -59 -120 -111 -230 -210 -572 -564 -760 -785 -19 -22 -36 -42 -39 -45
-3 -3 -28 -32 -55 -65 -28 -33 -52 -62 -55 -65 -14 -13 -245 -306 -311 -395
-41 -55 -77 -101 -81 -103 -5 -2 -8 -10 -8 -17 0 -7 -4 -15 -9 -17 -16 -6
-268 -381 -406 -606 -82 -132 -67 -106 -183 -312 -51 -91 -102 -181 -113 -200
-19 -33 -266 -526 -268 -535 -1 -3 -15 -35 -32 -72 -174 -380 -368 -905 -492
-1338 -49 -167 -132 -483 -143 -540 -2 -11 -6 -31 -9 -45 -3 -14 -8 -36 -11
-50 -3 -14 -7 -36 -10 -50 -3 -14 -9 -41 -14 -60 -5 -19 -12 -51 -15 -70 -3
-19 -14 -80 -25 -135 -28 -144 -82 -496 -95 -615 -3 -30 -7 -66 -10 -80 -2
-14 -7 -61 -11 -105 -3 -44 -8 -89 -10 -99 -2 -11 -6 -67 -10 -125 -3 -58 -8
-108 -10 -112 -9 -17 -19 -355 -19 -704 1 -354 6 -557 20 -705 3 -25 7 -79 10
-120 6 -85 12 -139 25 -260 6 -47 12 -105 15 -130 2 -25 9 -74 14 -110 5 -36
12 -83 15 -105 56 -430 198 -1057 346 -1530 62 -198 204 -606 230 -660 5 -11
34 -81 64 -156 124 -310 324 -731 483 -1016 42 -76 84 -151 93 -168 8 -16 51
-88 94 -160 250 -418 479 -747 785 -1130 75 -93 145 -180 156 -191 11 -12 29
-32 39 -45 17 -22 126 -147 151 -175 262 -289 619 -644 820 -815 21 -19 46
-41 55 -49 9 -8 38 -33 64 -55 27 -22 59 -49 70 -60 27 -26 338 -274 441 -352
624 -469 1372 -901 2070 -1195 77 -32 156 -66 175 -74 129 -58 516 -196 805
-287 195 -62 636 -179 760 -203 22 -4 45 -8 50 -10 13 -4 143 -32 175 -38 14
-2 72 -14 130 -25 97 -19 308 -54 390 -65 149 -21 191 -26 235 -31 28 -3 61
-8 75 -10 14 -3 61 -7 105 -11 44 -3 88 -8 97 -9 9 -2 59 -7 110 -10 51 -4
109 -9 128 -11 263 -25 1324 -25 1402 0 7 3 61 7 121 11 59 3 113 7 120 10 6
2 48 6 92 10 44 3 89 8 100 10 11 2 43 6 70 9 178 19 458 62 660 102 72 14
141 28 155 30 14 3 86 18 160 35 592 133 1163 316 1720 551 393 166 869 407
1215 615 246 147 664 423 732 482 7 6 16 11 22 11 5 0 11 3 13 8 2 4 73 60
158 124 505 381 943 784 1425 1313 15 17 46 52 69 79 22 26 49 58 59 70 11 11
35 41 55 65 21 25 44 52 52 61 8 8 40 47 70 85 30 39 60 75 66 82 56 59 359
479 515 713 154 232 429 694 429 721 0 5 5 9 12 9 6 0 8 3 5 6 -4 4 2 19 12
33 29 42 251 492 320 651 35 80 69 159 77 175 127 290 291 752 397 1120 52
180 124 450 134 505 2 14 9 43 14 65 6 22 13 51 15 65 3 14 12 52 19 85 8 33
17 77 21 99 3 21 8 48 10 60 2 11 15 80 28 151 21 110 33 186 71 450 2 17 7
57 10 90 3 33 8 71 10 85 2 14 7 57 11 95 3 39 8 81 10 95 1 14 6 68 9 120 4
52 8 105 10 118 12 72 20 366 20 697 -1 392 -8 602 -30 845 -3 30 -8 80 -10
110 -10 105 -26 245 -35 315 -16 115 -60 411 -65 436 -3 13 -10 51 -15 84 -15
86 -59 304 -70 345 -5 19 -12 51 -15 70 -10 59 -83 345 -137 535 -70 249 -250
787 -298 890 -5 11 -34 81 -64 156 -220 549 -547 1172 -888 1694 -136 208
-413 596 -473 662 -5 6 -21 26 -35 44 -36 47 -199 249 -224 278 -43 47 -52 58
-111 126 -33 39 -69 79 -80 91 -11 11 -58 63 -105 115 -111 122 -405 416 -549
549 -131 122 -115 107 -211 190 -41 36 -77 67 -80 71 -3 3 -70 58 -150 123
-80 65 -154 126 -166 135 -51 43 -381 286 -489 361 -176 121 -443 292 -625
400 -211 125 -699 380 -900 470 -299 133 -466 202 -725 297 -281 103 -493 171
-860 273 -88 24 -337 85 -390 96 -22 4 -44 8 -50 10 -90 25 -599 117 -765 139
-25 3 -61 8 -80 10 -19 3 -53 7 -75 10 -22 2 -78 8 -125 14 -47 5 -119 13
-160 16 -41 4 -86 8 -100 10 -14 2 -77 7 -140 11 -63 3 -133 8 -155 11 -47 4
-912 13 -917 8z"/>
</g>
</svg>
